<svg xmlns="http://www.w3.org/2000/svg" viewBox="0 0 64 64" role="img" aria-label="Sam">
  <defs>
    <linearGradient id="mark" x1="16" y1="6" x2="48" y2="58" gradientUnits="userSpaceOnUse">
      <stop stop-color="#F6F8FA" />
      <stop offset="1" stop-color="#8A96A2" />
    </linearGradient>
  </defs>
  <rect width="64" height="64" rx="18" fill="#0C0C0C" />
  <path
    d="M18 43.5c3.4 2.6 7.6 3.9 12.7 3.9 6.6 0 10.7-2.7 10.7-7.1 0-3.9-2.7-5.9-9.6-7.2l-3.5-.7c-8.4-1.7-12.5-5.8-12.5-12.3C15.8 12.6 22 8 31.5 8c5.7 0 10.5 1.4 14.6 4.3l-4.3 8c-3.1-2.2-6.4-3.2-10.4-3.2-4.5 0-7.3 1.7-7.3 4.5 0 2.6 2.2 4 7.7 5.1l3.6.7c9.8 1.9 14.3 6.1 14.3 13.2 0 8.8-7.1 14.7-18.8 14.7-7.3 0-13.2-1.8-17.4-5.5L18 43.5Z"
    fill="url(#mark)"
  />
</svg>
